#N canvas 378 123 1512 831 12;
#X declare -path sounds;
#X declare -path configs;
#N canvas 304 -1415 2560 1387 source 1;
#X obj 81 643 soundfiler;
#N canvas 0 38 450 300 (subpatch) 0;
#X array drum-sample-table 220504 float 2;
#X coords 0 1.02 220504 -1.02 200 130 1 0 0;
#X restore 79 693 graph;
#X obj 359 644 soundfiler;
#N canvas 0 38 450 300 (subpatch) 0;
#X array piano-sample-table 661504 float 2;
#X coords 0 1.02 661504 -1.02 200 130 1 0 0;
#X restore 357 694 graph;
#X obj 681 647 soundfiler;
#N canvas 0 38 450 300 (subpatch) 0;
#X array speech-sample-table 3.528e+06 float 2;
#X coords 0 1.02 3.528e+06 -1.02 200 130 1 0 0;
#X restore 679 697 graph;
#X obj 965 646 soundfiler;
#N canvas 0 38 450 300 (subpatch) 0;
#X array violin-sample-table 2.5578e+06 float 2;
#X coords 0 1.02 2.5578e+06 -1.02 200 130 1 0 0;
#X restore 963 696 graph;
#X msg 80 604 read drum.wav drum-sample-table;
#X msg 358 605 read piano.wav piano-sample-table;
#X msg 680 608 read speech.wav speech-sample-table;
#X msg 964 607 read violin.wav violin-sample-table;
#X obj 104 295 outlet~;
#X obj 176 140 bng 19 250 50 0 empty empty empty 0 -10 0 12 #fcfcfc #000000 #000000;
#X obj 104 239 tabplay~ speech-sample-table;
#X msg 189 17 set piano-sample-table;
#X msg 157 -12 set drum-sample-table;
#X obj 257 105 bng 19 250 50 0 empty empty empty 0 -10 0 12 #fcfcfc #000000 #000000;
#X obj 257 128 bng 19 250 50 0 empty empty empty 0 -10 0 12 #fcfcfc #000000 #000000;
#X obj 257 152 bng 19 250 50 0 empty empty empty 0 -10 0 12 #fcfcfc #000000 #000000;
#X obj 257 175 bng 19 250 50 0 empty empty empty 0 -10 0 12 #fcfcfc #000000 #000000;
#X obj 104 267 hip~ 5;
#X msg 230 41 set violin-sample-table;
#X msg 265 68 set speech-sample-table;
#X text 132 142 Play!;
#X text 222 105 drum;
#X text 216 129 piano;
#X text 209 153 violin;
#X text 208 176 speech;
#X connect 8 0 0 0;
#X connect 9 0 2 0;
#X connect 10 0 4 0;
#X connect 11 0 6 0;
#X connect 13 0 14 0;
#X connect 14 0 21 0;
#X connect 15 0 14 0;
#X connect 16 0 14 0;
#X connect 17 0 16 0;
#X connect 18 0 15 0;
#X connect 19 0 22 0;
#X connect 20 0 23 0;
#X connect 21 0 12 0;
#X connect 22 0 14 0;
#X connect 23 0 14 0;
#X coords 0 -1 1 1 185 101 1 100 100;
#X restore 215 23 pd source;
#X obj 216 307 zerr_disperser~ 8, f 62;
#X text 17 7 Import zerr stuff:;
#X obj 18 39 declare -path sounds;
#X obj 18 64 declare -path configs;
#N canvas 0 38 1512 837 monitor 0;
#X obj 116 151 snapshot~;
#X obj 549 222 tgl 15 1 empty empty empty 17 7 0 10 #fcfcfc #000000 #000000 1 1;
#X obj 81 80 inlet~;
#X obj 213 245 vu 15 120 empty empty -1 -8 0 10 #404040 #000000 1 0;
#X obj 318 6 metro 100;
#X obj 80 114 env~;
#X obj 119 214 - 120;
#X obj 117 183 * 1.25;
#X obj 196 151 snapshot~;
#X obj 161 80 inlet~;
#X obj 266 246 vu 15 120 empty empty -1 -8 0 10 #404040 #000000 1 0;
#X obj 160 114 env~;
#X obj 199 214 - 120;
#X obj 197 183 * 1.25;
#X obj 277 151 snapshot~;
#X obj 242 80 inlet~;
#X obj 318 247 vu 15 120 empty empty -1 -8 0 10 #404040 #000000 1 0;
#X obj 241 114 env~;
#X obj 280 214 - 120;
#X obj 278 183 * 1.25;
#X obj 357 151 snapshot~;
#X obj 322 80 inlet~;
#X obj 372 248 vu 15 120 empty empty -1 -8 0 10 #404040 #000000 1 0;
#X obj 321 114 env~;
#X obj 360 214 - 120;
#X obj 358 183 * 1.25;
#X obj 81 105 outlet~;
#X obj 161 105 outlet~;
#X obj 242 105 outlet~;
#X obj 322 105 outlet~;
#X obj 459 154 snapshot~;
#X obj 424 83 inlet~;
#X obj 427 248 vu 15 120 empty empty -1 -8 0 10 #404040 #000000 1 0;
#X obj 423 117 env~;
#X obj 462 217 - 120;
#X obj 460 186 * 1.25;
#X obj 424 108 outlet~;
#X obj 582 149 snapshot~;
#X obj 547 78 inlet~;
#X obj 480 248 vu 15 120 empty empty -1 -8 0 10 #404040 #000000 1 0;
#X obj 546 112 env~;
#X obj 585 212 - 120;
#X obj 583 181 * 1.25;
#X obj 547 103 outlet~;
#X obj 689 146 snapshot~;
#X obj 654 75 inlet~;
#X obj 532 247 vu 15 120 empty empty -1 -8 0 10 #404040 #000000 1 0;
#X obj 653 109 env~;
#X obj 692 209 - 120;
#X obj 690 178 * 1.25;
#X obj 654 100 outlet~;
#X obj 802 144 snapshot~;
#X obj 767 73 inlet~;
#X obj 588 249 vu 15 120 empty empty -1 -8 0 10 #404040 #000000 1 0;
#X obj 766 107 env~;
#X obj 805 207 - 120;
#X obj 803 176 * 1.25;
#X obj 767 98 outlet~;
#X connect 0 0 7 0;
#X connect 1 0 4 0;
#X connect 2 0 5 0;
#X connect 2 0 26 0;
#X connect 4 0 0 0;
#X connect 4 0 8 0;
#X connect 4 0 14 0;
#X connect 4 0 20 0;
#X connect 4 0 30 0;
#X connect 4 0 37 0;
#X connect 4 0 44 0;
#X connect 4 0 51 0;
#X connect 5 0 0 0;
#X connect 6 0 3 0;
#X connect 7 0 6 0;
#X connect 8 0 13 0;
#X connect 9 0 11 0;
#X connect 9 0 27 0;
#X connect 11 0 8 0;
#X connect 12 0 10 0;
#X connect 13 0 12 0;
#X connect 14 0 19 0;
#X connect 15 0 17 0;
#X connect 15 0 28 0;
#X connect 17 0 14 0;
#X connect 18 0 16 0;
#X connect 19 0 18 0;
#X connect 20 0 25 0;
#X connect 21 0 23 0;
#X connect 21 0 29 0;
#X connect 23 0 20 0;
#X connect 24 0 22 0;
#X connect 25 0 24 0;
#X connect 30 0 35 0;
#X connect 31 0 33 0;
#X connect 31 0 36 0;
#X connect 33 0 30 0;
#X connect 34 0 32 0;
#X connect 35 0 34 0;
#X connect 37 0 42 0;
#X connect 38 0 40 0;
#X connect 38 0 43 0;
#X connect 40 0 37 0;
#X connect 41 0 39 0;
#X connect 42 0 41 0;
#X connect 44 0 49 0;
#X connect 45 0 47 0;
#X connect 45 0 50 0;
#X connect 47 0 44 0;
#X connect 48 0 46 0;
#X connect 49 0 48 0;
#X connect 51 0 56 0;
#X connect 52 0 54 0;
#X connect 52 0 57 0;
#X connect 54 0 51 0;
#X connect 55 0 53 0;
#X connect 56 0 55 0;
#X coords 0 -1 1 1 438 197 1 200 200;
#X restore 216 339 pd monitor;
#X obj 270 252 *~ 2;
#X obj 270 227 -~ 0.5;
#X obj 270 278 zerr_envelopes~ trajectory circulation_8, f 54;
#X obj 216 545 dac~ 1 2 3 4, f 27;
#X obj 461 545 dac~ 5 6 7 8, f 27;
#N canvas 0 38 1512 837 feature 0;
#X obj 60 122 snapshot~;
#X obj 431 232 tgl 15 1 empty empty empty 17 7 0 10 #fcfcfc #000000 #000000 1 1;
#X obj 215 226 vsl 15 128 0 1 0 0 empty empty empty 0 -9 0 10 #fcfcfc #000000 #000000 0 1;
#X obj 60 84 inlet~;
#X obj 134 122 snapshot~;
#X obj 289 226 vsl 15 128 0 1000 0 0 empty empty empty 0 -9 0 10 #fcfcfc #000000 #000000 0 1;
#X obj 134 84 inlet~;
#X obj 209 122 snapshot~;
#X obj 364 226 vsl 15 128 0 10 0 0 empty empty empty 0 -9 0 10 #fcfcfc #000000 #000000 0 1;
#X obj 209 84 inlet~;
#X floatatom 215 362 5 0 0 0 - - - 0;
#X floatatom 289 362 5 0 0 0 - - - 0;
#X floatatom 364 362 5 0 0 0 - - - 0;
#X obj 191 11 metro 100;
#X connect 0 0 2 0;
#X connect 1 0 13 0;
#X connect 2 0 10 0;
#X connect 3 0 0 0;
#X connect 4 0 5 0;
#X connect 5 0 11 0;
#X connect 6 0 4 0;
#X connect 7 0 8 0;
#X connect 8 0 12 0;
#X connect 9 0 7 0;
#X connect 13 0 0 0;
#X connect 13 0 4 0;
#X connect 13 0 7 0;
#X coords 0 -1 1 1 262 190 1 200 200;
#X restore 1687 199 pd feature original;
#X obj 75 290 r~ centroid;
#X obj 413 176 s~ rolloff;
#N canvas -367 -1412 2560 1412 monitor 0;
#X obj 60 122 snapshot~;
#X obj 350 227 tgl 15 1 empty empty empty 17 7 0 10 #fcfcfc #000000 #000000 1 1;
#X obj 215 226 vsl 15 128 0 1 0 0 empty empty empty 0 -9 0 10 #fcfcfc #000000 #000000 0 1;
#X obj 60 84 inlet~;
#X obj 134 122 snapshot~;
#X obj 261 228 vsl 15 128 0 1000 0 0 empty empty empty 0 -9 0 10 #fcfcfc #000000 #000000 0 1;
#X obj 134 84 inlet~;
#X obj 209 122 snapshot~;
#X obj 307 228 vsl 15 128 0 10 0 0 empty empty empty 0 -9 0 10 #fcfcfc #000000 #000000 0 1;
#X obj 209 84 inlet~;
#X floatatom 215 362 5 0 0 0 - - - 0;
#X floatatom 261 364 5 0 0 0 - - - 0;
#X floatatom 307 364 5 0 0 0 - - - 0;
#X obj 191 11 metro 100;
#X connect 0 0 2 0;
#X connect 1 0 13 0;
#X connect 2 0 10 0;
#X connect 3 0 0 0;
#X connect 4 0 5 0;
#X connect 5 0 11 0;
#X connect 6 0 4 0;
#X connect 7 0 8 0;
#X connect 8 0 12 0;
#X connect 9 0 7 0;
#X connect 13 0 0 0;
#X connect 13 0 4 0;
#X connect 13 0 7 0;
#X coords 0 -1 1 1 174 199 1 200 200;
#X restore 20 334 pd monitor;
#X obj 270 146 zerr_features~ Centroid Rolloff Flux;
#X obj 539 178 s~ flux;
#X obj 282 176 s~ centroid;
#X obj 140 312 r~ flux;
#X obj 20 268 r~ rolloff;
#X obj 394 214 /~ 8000;
#X obj 519 213 *~ 60;
#X obj 17 91 adc~;
#X obj 270 200 /~ 2000;
#X obj 815 148 noise~;
#X floatatom 856 203 5 0 0 0 - - - 0;
#X obj 942 278 *~;
#X floatatom 960 247 5 0 0 0 - - - 0;
#X obj 943 213 osc~ 1000;
#X floatatom 943 176 5 0 0 0 - - - 0;
#X obj 908 361 +~;
#X obj 818 233 *~ 0.5;
#X connect 0 0 15 0;
#X connect 0 0 1 0;
#X connect 1 0 5 0;
#X connect 1 1 5 1;
#X connect 1 2 5 2;
#X connect 1 3 5 3;
#X connect 1 4 5 4;
#X connect 1 5 5 5;
#X connect 1 6 5 6;
#X connect 1 7 5 7;
#X connect 5 0 9 0;
#X connect 5 1 9 1;
#X connect 5 2 9 2;
#X connect 5 3 9 3;
#X connect 5 4 10 0;
#X connect 5 5 10 1;
#X connect 5 6 10 2;
#X connect 5 7 10 3;
#X connect 6 0 8 0;
#X connect 7 0 6 0;
#X connect 8 0 1 1;
#X connect 8 1 1 2;
#X connect 8 2 1 3;
#X connect 8 3 1 4;
#X connect 8 4 1 5;
#X connect 8 5 1 6;
#X connect 8 6 1 7;
#X connect 8 7 1 8;
#X connect 12 0 14 1;
#X connect 15 0 17 0;
#X connect 15 0 23 0;
#X connect 15 1 13 0;
#X connect 15 1 20 0;
#X connect 15 2 16 0;
#X connect 15 2 21 0;
#X connect 18 0 14 2;
#X connect 19 0 14 0;
#X connect 20 0 8 1;
#X connect 21 0 8 2;
#X connect 23 0 7 0;
#X connect 24 0 31 0;
#X connect 25 0 31 1;
#X connect 26 0 30 1;
#X connect 27 0 26 1;
#X connect 28 0 26 0;
#X connect 29 0 28 0;
#X connect 31 0 30 0;
