#N canvas -1187 -1095 749 963 12;
#X floatatom 322 113 5 0 100 0 - - - 0;
#X obj 322 135 / 100;
#X floatatom 183 107 5 0 100 0 - - - 0;
#X obj 183 133 / 100;
#X obj 21 113 snapshot~;
#X obj 21 86 metro 100;
#X obj 21 62 tgl 19 0 empty empty empty 0 -10 0 12 #fcfcfc #000000 #000000 0 1;
#X obj 21 162 vsl 19 162 0 1 0 0 empty empty empty 0 -9 0 12 #fcfcfc #000000 #000000 0 1;
#X msg 413 104 \; pd dsp \$1;
#X text 451 74 DSP on/off;
#N canvas 2566 -231 499 459 set-dsp-tgl 0;
#X msg 241 138 set 0;
#X msg 182 109 set 1;
#X obj 182 172 s \$0-set-tgl;
#X obj 182 202 r \$0-tgl;
#X obj 182 246 outlet;
#X obj 105 106 tgl 20 0 \$0-tgl \$0-set-tgl empty 0 -10 0 12 #dfdfdf #000000 #000000 0 1;
#X text 28 17 This is a simple helper abstraction for the Pd docs that sets the toggle according to the DSP state., f 42;
#N canvas 172 166 401 276 pd-messages 0;
#X obj 101 75 inlet;
#X obj 101 133 pdcontrol;
#X msg 101 105 dir;
#X msg 101 163 \; pd open pd-messages.pd \$1;
#X connect 0 0 2 0;
#X connect 1 0 3 0;
#X connect 2 0 1 0;
#X restore 237 389 pd pd-messages;
#X obj 182 80 receive pd-dsp-started;
#X obj 241 109 receive pd-dsp-stopped;
#X text 46 302 The trick is to rely on these messages sent by Pd. For more details on these and other messages that Pd sends or receives \, click here --->, f 39;
#X obj 237 353 bng 21 250 50 0 empty empty empty 0 -10 0 12 #dfdfdf #000000 #000000;
#X connect 0 0 2 0;
#X connect 1 0 2 0;
#X connect 3 0 4 0;
#X connect 8 0 1 0;
#X connect 9 0 0 0;
#X connect 11 0 7 0;
#X coords 0 -1 1 1 30 30 2 100 100;
#X restore 413 66 pd set-dsp-tgl;
#X msg 76 211 active-speakers add 3;
#X msg 76 159 trajectory set 1 8 2 7 3 6 4 5;
#N canvas 101 63 1266 805 view 0;
#X obj 42 55 snapshot~;
#X obj 252 4 metro 100;
#X obj 327 122 tgl 19 0 empty empty empty 0 -10 0 12 #fcfcfc #000000 #000000 0 1;
#X obj 111 121 vsl 19 162 0 1 0 0 empty empty 1 0 -9 0 14 #fcfcfc #000000 #000000 0 1;
#X obj 125 56 snapshot~;
#X obj 137 121 vsl 19 162 0 1 0 0 empty empty 2 0 -9 0 14 #fcfcfc #000000 #000000 0 1;
#X obj 211 57 snapshot~;
#X obj 163 121 vsl 19 162 0 1 0 0 empty empty 3 0 -9 0 14 #fcfcfc #000000 #000000 0 1;
#X obj 307 63 snapshot~;
#X obj 191 121 vsl 19 162 0 1 0 0 empty empty 4 0 -9 0 14 #fcfcfc #000000 #000000 0 1;
#X obj 400 64 snapshot~;
#X obj 220 121 vsl 19 162 0 1 0 0 empty empty 5 0 -9 0 14 #fcfcfc #000000 #000000 0 1;
#X obj 483 65 snapshot~;
#X obj 246 122 vsl 19 162 0 1 0 0 empty empty 6 0 -9 0 14 #fcfcfc #000000 #000000 0 1;
#X obj 569 66 snapshot~;
#X obj 271 122 vsl 19 162 0 1 0 0 empty empty 7 0 -9 0 14 #fcfcfc #000000 #000000 0 1;
#X obj 650 66 snapshot~;
#X obj 297 123 vsl 19 162 0 1 0 0 empty empty 8 0 -9 0 14 #fcfcfc #000000 #000000 0 1;
#X obj 562 246 inlet~;
#X obj 631 244 inlet~;
#X obj 1100 249 inlet~;
#X obj 1015 250 inlet~;
#X obj 920 248 inlet~;
#X obj 844 249 inlet~;
#X obj 780 248 inlet~;
#X obj 706 246 inlet~;
#X connect 0 0 3 0;
#X connect 1 0 0 0;
#X connect 1 0 4 0;
#X connect 1 0 6 0;
#X connect 1 0 8 0;
#X connect 1 0 10 0;
#X connect 1 0 12 0;
#X connect 1 0 14 0;
#X connect 1 0 16 0;
#X connect 2 0 1 0;
#X connect 4 0 5 0;
#X connect 6 0 7 0;
#X connect 8 0 9 0;
#X connect 10 0 11 0;
#X connect 12 0 13 0;
#X connect 14 0 15 0;
#X connect 16 0 17 0;
#X connect 18 0 0 0;
#X connect 19 0 4 0;
#X connect 20 0 16 0;
#X connect 21 0 14 0;
#X connect 22 0 12 0;
#X connect 23 0 10 0;
#X connect 24 0 8 0;
#X connect 25 0 6 0;
#X coords 0 -1 1 1 284 196 2 100 100;
#X restore 45 319 pd view;
#X obj 322 66 loadbang;
#X obj 183 80 loadbang;
#N canvas 157 38 1355 830 source 0;
#X obj 50 191 phasor~ 0.1;
#X msg 213 159 0;
#X obj 50 222 *~ 2;
#X obj 138 222 *~ 2;
#X obj 50 253 -~ 1;
#X obj 138 253 -~ 1;
#X obj 50 286 clip~ 0 1;
#X obj 138 286 clip~ 0 1;
#X obj 50 326 +~, f 13;
#X obj 67 152 * -1;
#X obj 138 191 phasor~ 0.1;
#X obj 49 123 / 100;
#X obj 213 129 loadbang;
#X obj 49 73 loadbang;
#X obj 50 357 outlet~;
#X msg 49 99 10;
#X connect 0 0 2 0;
#X connect 1 0 0 1;
#X connect 1 0 10 1;
#X connect 2 0 4 0;
#X connect 3 0 5 0;
#X connect 4 0 6 0;
#X connect 5 0 7 0;
#X connect 6 0 8 0;
#X connect 7 0 8 1;
#X connect 8 0 14 0;
#X connect 9 0 10 0;
#X connect 10 0 3 0;
#X connect 11 0 0 0;
#X connect 11 0 9 0;
#X connect 12 0 1 0;
#X connect 13 0 15 0;
#X connect 15 0 11 0;
#X restore 45 62 pd source signal;
#X msg 322 90 100;
#X msg 76 185 trajectory set 1 2 3 4 5 6 7 8;
#X msg 77 242 active-speakers del 3;
#X obj 45 278 zerr_envelopes~ trajectory circulation_8;
#X obj 258 632 dac~ 1 2 3 4 5 6 7 8;
#X connect 0 0 1 0;
#X connect 1 0 20 2;
#X connect 2 0 3 0;
#X connect 3 0 20 1;
#X connect 4 0 7 0;
#X connect 5 0 4 0;
#X connect 6 0 5 0;
#X connect 10 0 8 0;
#X connect 11 0 20 0;
#X connect 12 0 20 0;
#X connect 14 0 17 0;
#X connect 15 0 2 0;
#X connect 16 0 4 0;
#X connect 16 0 20 0;
#X connect 17 0 0 0;
#X connect 18 0 20 0;
#X connect 19 0 20 0;
#X connect 20 0 13 0;
#X connect 20 0 21 0;
#X connect 20 1 13 1;
#X connect 20 1 21 1;
#X connect 20 2 13 2;
#X connect 20 2 21 2;
#X connect 20 3 13 3;
#X connect 20 3 21 3;
#X connect 20 4 13 4;
#X connect 20 4 21 4;
#X connect 20 5 13 5;
#X connect 20 5 21 5;
#X connect 20 6 13 6;
#X connect 20 6 21 6;
#X connect 20 7 13 7;
#X connect 20 7 21 7;
#X coords 0 963 1 962 85 60 0;
