#N canvas 943 -1143 1512 831 12;
#X floatatom 397 280 5 0 100 0 - - - 0;
#X obj 397 303 / 100;
#X obj 263 124 phasor~ 0.1;
#X msg 426 92 0;
#X obj 263 155 *~ 2;
#X obj 351 155 *~ 2;
#X obj 263 186 -~ 1;
#X obj 351 186 -~ 1;
#X obj 263 219 clip~ 0 1;
#X obj 351 219 clip~ 0 1;
#X obj 263 249 +~, f 13;
#X obj 280 85 * -1;
#X obj 351 124 phasor~ 0.1;
#N canvas 906 -1138 1958 1110 monitor 0;
#X obj 116 151 snapshot~;
#X obj 549 222 tgl 15 1 empty empty empty 17 7 0 10 #fcfcfc #000000 #000000 1 1;
#X obj 81 80 inlet~;
#X obj 211 287 vu 15 120 empty empty -1 -8 0 10 #404040 #000000 1 0;
#X obj 318 6 metro 100;
#X obj 80 114 env~;
#X obj 119 214 - 120;
#X obj 117 183 * 1.25;
#X obj 196 151 snapshot~;
#X obj 161 80 inlet~;
#X obj 264 288 vu 15 120 empty empty -1 -8 0 10 #404040 #000000 1 0;
#X obj 160 114 env~;
#X obj 199 214 - 120;
#X obj 197 183 * 1.25;
#X obj 277 151 snapshot~;
#X obj 242 80 inlet~;
#X obj 316 289 vu 15 120 empty empty -1 -8 0 10 #404040 #000000 1 0;
#X obj 241 114 env~;
#X obj 280 214 - 120;
#X obj 278 183 * 1.25;
#X obj 357 151 snapshot~;
#X obj 322 80 inlet~;
#X obj 370 290 vu 15 120 empty empty -1 -8 0 10 #404040 #000000 1 0;
#X obj 321 114 env~;
#X obj 360 214 - 120;
#X obj 358 183 * 1.25;
#X obj 81 105 outlet~;
#X obj 161 105 outlet~;
#X obj 242 105 outlet~;
#X obj 322 105 outlet~;
#X obj 459 154 snapshot~;
#X obj 424 83 inlet~;
#X obj 425 290 vu 15 120 empty empty -1 -8 0 10 #404040 #000000 1 0;
#X obj 423 117 env~;
#X obj 462 217 - 120;
#X obj 460 186 * 1.25;
#X obj 424 108 outlet~;
#X obj 582 149 snapshot~;
#X obj 547 78 inlet~;
#X obj 478 290 vu 15 120 empty empty -1 -8 0 10 #404040 #000000 1 0;
#X obj 546 112 env~;
#X obj 585 212 - 120;
#X obj 583 181 * 1.25;
#X obj 547 103 outlet~;
#X obj 689 146 snapshot~;
#X obj 654 75 inlet~;
#X obj 530 289 vu 15 120 empty empty -1 -8 0 10 #404040 #000000 1 0;
#X obj 653 109 env~;
#X obj 692 209 - 120;
#X obj 690 178 * 1.25;
#X obj 654 100 outlet~;
#X obj 802 144 snapshot~;
#X obj 767 73 inlet~;
#X obj 586 291 vu 15 120 empty empty -1 -8 0 10 #404040 #000000 1 0;
#X obj 766 107 env~;
#X obj 805 207 - 120;
#X obj 803 176 * 1.25;
#X obj 767 98 outlet~;
#X connect 0 0 7 0;
#X connect 1 0 4 0;
#X connect 2 0 5 0;
#X connect 2 0 26 0;
#X connect 4 0 0 0;
#X connect 4 0 8 0;
#X connect 4 0 14 0;
#X connect 4 0 20 0;
#X connect 4 0 30 0;
#X connect 4 0 37 0;
#X connect 4 0 44 0;
#X connect 4 0 51 0;
#X connect 5 0 0 0;
#X connect 6 0 3 0;
#X connect 7 0 6 0;
#X connect 8 0 13 0;
#X connect 9 0 11 0;
#X connect 9 0 27 0;
#X connect 11 0 8 0;
#X connect 12 0 10 0;
#X connect 13 0 12 0;
#X connect 14 0 19 0;
#X connect 15 0 17 0;
#X connect 15 0 28 0;
#X connect 17 0 14 0;
#X connect 18 0 16 0;
#X connect 19 0 18 0;
#X connect 20 0 25 0;
#X connect 21 0 23 0;
#X connect 21 0 29 0;
#X connect 23 0 20 0;
#X connect 24 0 22 0;
#X connect 25 0 24 0;
#X connect 30 0 35 0;
#X connect 31 0 33 0;
#X connect 31 0 36 0;
#X connect 33 0 30 0;
#X connect 34 0 32 0;
#X connect 35 0 34 0;
#X connect 37 0 42 0;
#X connect 38 0 40 0;
#X connect 38 0 43 0;
#X connect 40 0 37 0;
#X connect 41 0 39 0;
#X connect 42 0 41 0;
#X connect 44 0 49 0;
#X connect 45 0 47 0;
#X connect 45 0 50 0;
#X connect 47 0 44 0;
#X connect 48 0 46 0;
#X connect 49 0 48 0;
#X connect 51 0 56 0;
#X connect 52 0 54 0;
#X connect 52 0 57 0;
#X connect 54 0 51 0;
#X connect 55 0 53 0;
#X connect 56 0 55 0;
#X coords 0 -1 1 1 444 222 1 200 200;
#X restore 263 390 pd monitor;
#X text 272 616 9, f 2;
#X text 324 616 10;
#X text 376 617 11;
#X text 430 616 12;
#X text 485 617 13;
#X text 538 617 14;
#X text 590 618 15;
#X text 645 616 16;
#X msg 84 259 active-speakers add 9;
#X msg 85 289 trajectory set 10 15;
#X floatatom 262 33 5 0 10000 0 - - - 0;
#X obj 262 56 / 100;
#X obj 311 56 nbx 5 17 -1e+37 1e+37 0 0 empty empty empty 0 -10 0 12 #fcfcfc #000000 #000000 0 256;
#X floatatom 694 249 5 0 100 0 - - - 0;
#X obj 735 283 nbx 5 17 -1e+37 1e+37 0 0 empty empty empty 0 -10 0 12 #fcfcfc #000000 #000000 0 256;
#X obj 694 282 / 100;
#X obj 566 87 noise~;
#X obj 566 156 lop~ 100;
#X floatatom 619 120 5 0 0 0 - - - 0;
#X obj 606 225 snapshot~;
#X floatatom 606 256 5 0 0 0 - - - 0;
#X obj 643 189 metro 100;
#X obj 643 162 tgl 19 0 empty empty empty 0 -10 0 12 #fcfcfc #000000 #000000 0 1;
#N canvas 772 -996 1958 1110 monitor 0;
#X obj 210 167 snapshot~;
#X obj 175 96 inlet~;
#X obj 211 287 vu 15 120 empty empty -1 -8 0 10 #404040 #000000 1 0;
#X obj 318 6 metro 100;
#X obj 174 130 env~;
#X obj 213 230 - 120;
#X obj 211 199 * 1.25;
#X obj 290 167 snapshot~;
#X obj 255 96 inlet~;
#X obj 264 288 vu 15 120 empty empty -1 -8 0 10 #404040 #000000 1 0;
#X obj 254 130 env~;
#X obj 293 230 - 120;
#X obj 291 199 * 1.25;
#X obj 371 167 snapshot~;
#X obj 336 96 inlet~;
#X obj 316 289 vu 15 120 empty empty -1 -8 0 10 #404040 #000000 1 0;
#X obj 335 130 env~;
#X obj 374 230 - 120;
#X obj 372 199 * 1.25;
#X obj 175 121 outlet~;
#X obj 255 121 outlet~;
#X obj 336 121 outlet~;
#X obj 263 253 tgl 19 0 empty empty empty 0 -10 0 12 #fcfcfc #000000 #000000 0 1;
#X connect 0 0 6 0;
#X connect 1 0 4 0;
#X connect 1 0 19 0;
#X connect 3 0 0 0;
#X connect 3 0 7 0;
#X connect 3 0 13 0;
#X connect 4 0 0 0;
#X connect 5 0 2 0;
#X connect 6 0 5 0;
#X connect 7 0 12 0;
#X connect 8 0 10 0;
#X connect 8 0 20 0;
#X connect 10 0 7 0;
#X connect 11 0 9 0;
#X connect 12 0 11 0;
#X connect 13 0 18 0;
#X connect 14 0 16 0;
#X connect 14 0 21 0;
#X connect 16 0 13 0;
#X connect 17 0 15 0;
#X connect 18 0 17 0;
#X connect 22 0 3 0;
#X coords 0 -1 1 1 178 222 1 200 200;
#X restore 71 389 pd monitor;
#X obj 751 734 zerr_disperser~ 8, f 37;
#X obj 751 786 dac~ 1 2 3 4 5 6 7 8, f 37;
#X obj 263 350 zerr_envelopes~ trajectory circulation_8, f 63;
#X obj 745 467 snapshot~;
#X floatatom 745 498 35 0 0 0 - - - 0;
#X obj 782 404 tgl 19 0 empty empty empty 0 -10 0 12 #fcfcfc #000000 #000000 0 1;
#X obj 782 431 metro 10;
#X floatatom 482 291 5 0 100 0 - - - 0;
#X obj 482 314 / 100;
#X obj 546 310 *~ 2;
#X obj 549 244 +~ 1;
#X connect 0 0 1 0;
#X connect 1 0 40 0;
#X connect 2 0 4 0;
#X connect 3 0 2 1;
#X connect 3 0 12 1;
#X connect 4 0 6 0;
#X connect 5 0 7 0;
#X connect 6 0 8 0;
#X connect 7 0 9 0;
#X connect 8 0 10 0;
#X connect 9 0 10 1;
#X connect 10 0 37 0;
#X connect 11 0 12 0;
#X connect 12 0 5 0;
#X connect 22 0 40 0;
#X connect 23 0 40 0;
#X connect 24 0 25 0;
#X connect 25 0 2 0;
#X connect 25 0 11 0;
#X connect 25 0 26 0;
#X connect 27 0 29 0;
#X connect 29 0 28 0;
#X connect 29 0 40 2;
#X connect 30 0 31 0;
#X connect 31 0 33 0;
#X connect 31 0 37 1;
#X connect 31 0 48 0;
#X connect 32 0 31 1;
#X connect 33 0 34 0;
#X connect 35 0 33 0;
#X connect 36 0 35 0;
#X connect 38 0 39 0;
#X connect 38 1 39 1;
#X connect 38 2 39 2;
#X connect 38 3 39 3;
#X connect 38 4 39 4;
#X connect 38 5 39 5;
#X connect 38 6 39 6;
#X connect 38 7 39 7;
#X connect 40 0 13 0;
#X connect 40 1 13 1;
#X connect 40 2 13 2;
#X connect 40 3 13 3;
#X connect 40 4 13 4;
#X connect 40 5 13 5;
#X connect 40 6 13 6;
#X connect 40 7 13 7;
#X connect 40 7 41 0;
#X connect 41 0 42 0;
#X connect 43 0 44 0;
#X connect 44 0 41 0;
#X connect 45 0 46 0;
#X connect 46 0 40 1;
#X connect 48 0 47 0;
