#N canvas 1843 -315 1950 1383 12;
#N canvas 1928 -62 1335 748 reference 0;
#X obj 18 52 cnv 5 550 5 empty empty INLET: 8 18 0 13 #202020 #000000 0;
#X obj 18 88 cnv 2 550 2 empty empty OUTLET: 8 12 0 13 #202020 #000000 0;
#X obj 17 116 cnv 2 550 2 empty empty ARGUMENTS: 8 12 0 13 #202020 #000000 0;
#X obj 18 180 cnv 5 550 5 empty empty empty 8 18 0 13 #202020 #000000 0;
#X obj 22 17 zerr_combinator~ 2 3 root;
#X text 212 15 - combine multiple sets of envelopes in different ways;
#X text 112 120 float - the number of sets, f 64;
#X text 112 139 float - the number of envelopes per set, f 64;
#X text 112 159 symbol - the combination mode: root/max, f 64;
#X text 90 91 signal - combined envelopes;
#X text 89 61 signal - separated envelopes. Sort by sets and envelopes;
#X restore 13 492 pd reference;
#X text 107 492 <= click;
#X obj 17 45 cnv 1 520 1 empty empty empty 8 12 0 13 #000000 #000000 0;
#X obj 12 480 cnv 1 520 1 empty empty empty 8 12 0 13 #000000 #000000 0;
#X msg 308 303 \; pd dsp \$1;
#X text 346 273 DSP on/off;
#N canvas 2566 -231 499 459 set-dsp-tgl 0;
#X msg 241 138 set 0;
#X msg 182 109 set 1;
#X obj 182 172 s \$0-set-tgl;
#X obj 182 202 r \$0-tgl;
#X obj 182 246 outlet;
#X obj 105 106 tgl 20 0 \$0-tgl \$0-set-tgl empty 0 -10 0 12 #dfdfdf #000000 #000000 0 1;
#X text 28 17 This is a simple helper abstraction for the Pd docs that sets the toggle according to the DSP state., f 42;
#N canvas 172 166 401 276 pd-messages 0;
#X obj 101 75 inlet;
#X obj 101 133 pdcontrol;
#X msg 101 105 dir;
#X msg 101 163 \; pd open pd-messages.pd \$1;
#X connect 0 0 2 0;
#X connect 1 0 3 0;
#X connect 2 0 1 0;
#X restore 237 389 pd pd-messages;
#X obj 182 80 receive pd-dsp-started;
#X obj 241 109 receive pd-dsp-stopped;
#X text 46 302 The trick is to rely on these messages sent by Pd. For more details on these and other messages that Pd sends or receives \, click here --->, f 39;
#X obj 237 353 bng 21 250 50 0 empty empty empty 0 -10 0 12 #dfdfdf #000000 #000000;
#X connect 0 0 2 0;
#X connect 1 0 2 0;
#X connect 3 0 4 0;
#X connect 8 0 1 0;
#X connect 9 0 0 0;
#X connect 11 0 7 0;
#X coords 0 -1 1 1 30 30 2 100 100;
#X restore 308 265 pd set-dsp-tgl;
#X text 206 16 - combine multiple sets of envelopes in different ways;
#X obj 16 16 zerr_combinator~ 2 3 root;
#N canvas 2779 -220 1380 997 inputs 0;
#X obj 20 181 sig~;
#X floatatom 109 105 6 0 100 0 - - - 0;
#X obj 69 182 sig~;
#X floatatom 166 106 6 0 100 0 - - - 0;
#X obj 121 183 sig~;
#X floatatom 224 106 6 0 100 0 - - - 0;
#X obj 175 185 sig~;
#X floatatom 110 133 6 0 100 0 - - - 0;
#X obj 224 183 sig~;
#X floatatom 167 133 6 0 100 0 - - - 0;
#X obj 276 185 sig~;
#X floatatom 223 133 6 0 100 0 - - - 0;
#X obj 20 212 outlet~;
#X obj 69 265 outlet~;
#X obj 107 238 outlet~;
#X obj 153 280 outlet~;
#X obj 215 268 outlet~;
#X obj 323 271 outlet~;
#X connect 0 0 12 0;
#X connect 1 0 0 0;
#X connect 2 0 13 0;
#X connect 3 0 2 0;
#X connect 4 0 14 0;
#X connect 5 0 4 0;
#X connect 6 0 15 0;
#X connect 7 0 6 0;
#X connect 8 0 16 0;
#X connect 9 0 8 0;
#X connect 10 0 17 0;
#X connect 11 0 10 0;
#X coords 0 -1 1 1 179 59 2 100 100;
#X restore 48 271 pd inputs;
#X text 55 247 envlp1;
#X text 112 247 envlp2;
#X text 171 247 envlp3;
#X text 8 275 set1;
#X text 8 301 set2;
#N canvas 438 241 1026 496 outputs 0;
#X obj 109 76 snapshot~;
#X obj 321 19 loadbang;
#X floatatom 109 109 6 0 0 0 - - - 0;
#X obj 183 76 snapshot~;
#X floatatom 165 109 6 0 0 0 - - - 0;
#X obj 256 76 snapshot~;
#X floatatom 223 109 6 0 0 0 - - - 0;
#X obj 321 48 metro 100;
#X obj 109 43 inlet~;
#X obj 183 42 inlet~;
#X obj 256 41 inlet~;
#X obj 393 48 tgl 19 0 empty empty empty 0 -10 0 12 #fcfcfc #000000 #000000 0 1;
#X obj 393 19 r \$0-tgl;
#X connect 0 0 2 0;
#X connect 1 0 7 0;
#X connect 3 0 4 0;
#X connect 5 0 6 0;
#X connect 7 0 0 0;
#X connect 7 0 3 0;
#X connect 7 0 5 0;
#X connect 8 0 0 0;
#X connect 9 0 3 0;
#X connect 10 0 5 0;
#X connect 11 0 7 1;
#X connect 12 0 11 0;
#X coords 0 -1 1 1 179 35 2 100 100;
#X restore 48 402 pd outputs;
#X text 16 54 The [zerr_combinator~] is for combining multiple sets of envelopes in different ways. First argument is the number of sets. The second argument is the number of envelopes per set. The third argument is the combination mode. Available combination modes: - root: - max:, f 69;
#X obj 48 370 zerr_combinator~ 2 3 root;
#N canvas 438 241 1026 496 outputs 0;
#X obj 109 76 snapshot~;
#X obj 321 19 loadbang;
#X floatatom 109 109 6 0 0 0 - - - 0;
#X obj 183 76 snapshot~;
#X floatatom 165 109 6 0 0 0 - - - 0;
#X obj 256 76 snapshot~;
#X floatatom 223 109 6 0 0 0 - - - 0;
#X obj 321 48 metro 100;
#X obj 109 43 inlet~;
#X obj 183 42 inlet~;
#X obj 256 41 inlet~;
#X obj 393 48 tgl 19 0 empty empty empty 0 -10 0 12 #fcfcfc #000000 #000000 0 1;
#X obj 393 19 r \$0-tgl;
#X connect 0 0 2 0;
#X connect 1 0 7 0;
#X connect 3 0 4 0;
#X connect 5 0 6 0;
#X connect 7 0 0 0;
#X connect 7 0 3 0;
#X connect 7 0 5 0;
#X connect 8 0 0 0;
#X connect 9 0 3 0;
#X connect 10 0 5 0;
#X connect 11 0 7 1;
#X connect 12 0 11 0;
#X coords 0 -1 1 1 179 35 2 100 100;
#X restore 236 403 pd outputs;
#X obj 236 371 zerr_combinator~ 2 3 max, f 25;
#X text 53 439 envlp1;
#X text 110 439 envlp2;
#X text 169 439 envlp3;
#X text 241 440 envlp1;
#X text 298 440 envlp2;
#X text 357 440 envlp3;
#X text 15 175 In the help patch \, there are two sets and three envelopes in each set. So the [zerr_combinator~] has six inlets. The order is from the envelope1 in set1 to envelope3 in set1 then to set2. The [zerr_combinator~] are set to "root" and "max" mode separtely., f 69;
#X text 16 115 Available combination modes:;
#X text 15 132 "root": the output is the square root of the multiplied envelopes, f 69;
#X text 15 149 "max": the output is maximum number of envelopes, f 69;
#X connect 6 0 4 0;
#X connect 9 0 17 0;
#X connect 9 0 19 0;
#X connect 9 1 17 1;
#X connect 9 1 19 1;
#X connect 9 2 17 2;
#X connect 9 2 19 2;
#X connect 9 3 17 3;
#X connect 9 3 19 3;
#X connect 9 4 17 4;
#X connect 9 4 19 4;
#X connect 9 5 17 5;
#X connect 9 5 19 5;
#X connect 17 0 15 0;
#X connect 17 1 15 1;
#X connect 17 2 15 2;
#X connect 19 0 18 0;
#X connect 19 1 18 1;
#X connect 19 2 18 2;
