#N canvas 53 176 1349 481 12;
#X obj 576 33 osc~ 1000;
#X obj 41 241 snapshot~;
#X floatatom 42 272 5 0 0 0 - - -;
#X obj 190 225 snapshot~;
#X floatatom 191 256 5 0 0 0 - - -;
#X obj 350 326 snapshot~;
#X floatatom 351 357 5 0 0 0 - - -;
#X obj 51 186 tgl 15 1 empty empty empty 17 7 0 10 -262144 -1 -1 1
1;
#X floatatom 575 10 5 1 2000 0 F0 - -;
#X floatatom 191 325 5 0 0 0 - - -;
#X obj 190 295 * 24000;
#X floatatom 651 31 5 0 100 0 - - -;
#X obj 505 292 snapshot~;
#X floatatom 504 327 5 0 0 0 - - -;
#X obj 656 283 snapshot~;
#X floatatom 657 315 5 0 0 0 - - -;
#X obj 211 165 tgl 15 1 empty empty empty 17 7 0 10 -262144 -1 -1 1
1;
#X obj 815 275 snapshot~;
#X floatatom 816 307 5 0 0 0 - - -;
#X obj 969 252 snapshot~;
#X floatatom 970 284 5 0 0 0 - - -;
#X obj 1128 246 snapshot~;
#X floatatom 1126 281 5 0 0 0 - - -;
#X obj 372 268 tgl 15 1 empty empty empty 17 7 0 10 -262144 -1 -1 1
1;
#X obj 524 228 tgl 15 1 empty empty empty 17 7 0 10 -262144 -1 -1 1
1;
#X obj 671 216 tgl 15 1 empty empty empty 17 7 0 10 -262144 -1 -1 1
1;
#X obj 831 221 tgl 15 1 empty empty empty 17 7 0 10 -262144 -1 -1 1
1;
#X obj 989 180 tgl 15 1 empty empty empty 17 7 0 10 -262144 -1 -1 1
1;
#X obj 1146 191 tgl 15 1 empty empty empty 17 7 0 10 -262144 -1 -1
1 1;
#X text 27 294 RootMeanSquare;
#X text 168 355 ZeroCrossingRate;
#X text 1159 612 AmplitudeEnvelope;
#X text 342 386 Flux;
#X text 479 352 Centroid;
#X text 638 337 Rolloff;
#X text 802 336 Crest;
#X text 950 317 Flatness;
#X text 1100 306 ZeroCrossings;
#X obj 42 130 zerr_feature_tracker~ RootMeanSquare ZeroCrossingRate
Flux Centroid Rolloff CrestFactor Flatness ZeroCrossings, f 155;
#X obj 52 209 metro 100;
#X obj 212 188 metro 100;
#X obj 373 292 metro 100;
#X obj 525 251 metro 100;
#X obj 832 243 metro 100;
#X obj 990 203 metro 100;
#X obj 1147 214 metro 1;
#X obj 672 239 metro 500;
#X obj 426 4 noise~;
#X obj 426 35 lop~ 1000;
#X obj 651 56 / 100;
#X floatatom 866 99 5 0 100 0 - - -;
#X floatatom 500 24 5 0 100 0 - - -;
#X obj 500 49 / 100;
#X obj 426 83 *~ 0.5;
#X obj 577 90 *~ 0.5;
#X obj 43 86 phasor~ 1000;
#X connect 0 0 54 0;
#X connect 1 0 2 0;
#X connect 3 0 4 0;
#X connect 4 0 10 0;
#X connect 5 0 6 0;
#X connect 7 0 39 0;
#X connect 8 0 0 0;
#X connect 10 0 9 0;
#X connect 11 0 49 0;
#X connect 12 0 13 0;
#X connect 14 0 15 0;
#X connect 16 0 40 0;
#X connect 17 0 18 0;
#X connect 19 0 20 0;
#X connect 21 0 22 0;
#X connect 23 0 41 0;
#X connect 24 0 42 0;
#X connect 25 0 46 0;
#X connect 26 0 43 0;
#X connect 27 0 44 0;
#X connect 28 0 45 0;
#X connect 38 0 1 0;
#X connect 38 1 3 0;
#X connect 38 2 5 0;
#X connect 38 3 12 0;
#X connect 38 4 14 0;
#X connect 38 5 17 0;
#X connect 38 6 19 0;
#X connect 38 7 21 0;
#X connect 39 0 1 0;
#X connect 40 0 3 0;
#X connect 41 0 5 0;
#X connect 42 0 12 0;
#X connect 43 0 17 0;
#X connect 44 0 19 0;
#X connect 45 0 21 0;
#X connect 46 0 14 0;
#X connect 47 0 48 0;
#X connect 48 0 53 0;
#X connect 49 0 54 1;
#X connect 51 0 52 0;
#X connect 52 0 53 1;
#X connect 55 0 38 0;
