#N canvas 2017 -340 2454 1387 12;
#X obj 125 179 osc~ 1000;
#X obj 125 353 snapshot~;
#X floatatom 126 384 5 0 0 0 - - -;
#X obj 332 356 snapshot~;
#X floatatom 333 387 5 0 0 0 - - -;
#X obj 542 353 snapshot~;
#X floatatom 543 384 5 0 0 0 - - -;
#X obj 564 266 tgl 15 1 empty empty empty 17 7 0 10 -262144 -1 -1 1
1;
#X obj 125 221 *~ 0.4;
#X obj 565 289 metro 1000;
#X floatatom 126 142 5 0 0 0 - - -;
#X floatatom 126 462 5 0 0 0 - - -;
#X obj 125 417 * 24000;
#X obj 125 263 zerr_feature_tracker~ ZeroCrossingRate RMSAmplitude
Centroid;
#X floatatom 184 221 5 0 0 0 - - -;
#X connect 0 0 8 0;
#X connect 1 0 2 0;
#X connect 2 0 12 0;
#X connect 3 0 4 0;
#X connect 5 0 6 0;
#X connect 7 0 9 0;
#X connect 8 0 13 0;
#X connect 9 0 5 0;
#X connect 9 0 3 0;
#X connect 9 0 1 0;
#X connect 10 0 0 0;
#X connect 12 0 11 0;
#X connect 13 0 1 0;
#X connect 13 1 3 0;
#X connect 13 2 5 0;
#X connect 14 0 8 1;
